<svg xmlns="http://www.w3.org/2000/svg" width="24" height="24" viewBox="0 0 24 24" fill="none">
  <path d="M3.24797 16.443C1.31532 13.7314 1.61075 10.0164 4.25051 7.59641C5.45664 6.49074 6.99426 5.80242 8.65524 5.61019C8.66559 5.59746 8.67617 5.58484 8.68778 5.57277C10.1327 4.0718 12.2087 3.21094 14.3833 3.21094C18.5215 3.21094 22 6.29426 22 10.2422C22 11.6264 21.57 12.9533 20.7533 14.0993L21.8943 17.6815C21.966 17.9067 21.8954 18.1528 21.7154 18.3058C21.535 18.4591 21.2806 18.4886 21.0704 18.3816L17.6006 16.6173C16.888 16.9241 16.1324 17.1255 15.3499 17.2171C13.8405 18.8044 11.7533 19.6172 9.61797 19.6172C8.50797 19.6172 7.402 19.391 6.40078 18.961L2.93082 20.7254C2.8468 20.7682 2.75582 20.7891 2.66539 20.7891C2.26996 20.7891 1.98649 20.4037 2.107 20.0253L3.24797 16.443ZM17.3641 15.4383C17.5282 15.3604 17.7191 15.363 17.8811 15.4453L20.3524 16.702L19.5454 14.1681C19.4866 13.9836 19.5228 13.7821 19.642 13.6295C20.418 12.6362 20.8282 11.4649 20.8282 10.2422C20.8282 7.01133 17.937 4.38281 14.3833 4.38281C12.9522 4.38281 11.5745 4.81637 10.457 5.59711C14.2205 5.97555 17.2347 8.91515 17.2347 12.5859C17.2347 13.7277 16.942 14.8268 16.3903 15.8116C16.7243 15.7121 17.0497 15.5877 17.3641 15.4383ZM6.1202 17.789C6.27977 17.7079 6.47082 17.703 6.63711 17.7821C7.55059 18.216 8.58133 18.4453 9.61797 18.4453C13.1717 18.4453 16.0629 15.8168 16.0629 12.5859C16.0629 9.35508 13.1717 6.72656 9.61797 6.72656C6.06422 6.72656 3.17305 9.35508 3.17305 12.5859C3.17305 13.8086 3.58325 14.9799 4.3593 15.9732C4.47848 16.1258 4.51461 16.3273 4.4559 16.5118L3.64887 19.0457L6.1202 17.789Z" fill="#FFFFFF"/>
</svg>